{
  "asset": {
    "version": "2.0",
    "generator": "custom-node-script"
  },
  "buffers": [
    {
      "uri": "sneaker.bin",
      "byteLength": 284960
    }
  ],
  "bufferViews": [
    {
      "buffer": 0,
      "byteOffset": 0,
      "byteLength": 35400,
      "target": 34962
    },
    {
      "buffer": 0,
      "byteOffset": 35400,
      "byteLength": 35400,
      "target": 34962
    },
    {
      "buffer": 0,
      "byteOffset": 70800,
      "byteLength": 23600,
      "target": 34962
    },
    {
      "buffer": 0,
      "byteOffset": 94400,
      "byteLength": 32256,
      "target": 34963
    },
    {
      "buffer": 0,
      "byteOffset": 126656,
      "byteLength": 14280,
      "target": 34962
    },
    {
      "buffer": 0,
      "byteOffset": 140936,
      "byteLength": 14280,
      "target": 34962
    },
    {
      "buffer": 0,
      "byteOffset": 155216,
      "byteLength": 9520,
      "target": 34962
    },
    {
      "buffer": 0,
      "byteOffset": 164736,
      "byteLength": 12288,
      "target": 34963
    },
    {
      "buffer": 0,
      "byteOffset": 177024,
      "byteLength": 3240,
      "target": 34962
    },
    {
      "buffer": 0,
      "byteOffset": 180264,
      "byteLength": 3240,
      "target": 34962
    },
    {
      "buffer": 0,
      "byteOffset": 183504,
      "byteLength": 2160,
      "target": 34962
    },
    {
      "buffer": 0,
      "byteOffset": 185664,
      "byteLength": 2304,
      "target": 34963
    },
    {
      "buffer": 0,
      "byteOffset": 187968,
      "byteLength": 5928,
      "target": 34962
    },
    {
      "buffer": 0,
      "byteOffset": 193896,
      "byteLength": 5928,
      "target": 34962
    },
    {
      "buffer": 0,
      "byteOffset": 199824,
      "byteLength": 3952,
      "target": 34962
    },
    {
      "buffer": 0,
      "byteOffset": 203776,
      "byteLength": 4608,
      "target": 34963
    },
    {
      "buffer": 0,
      "byteOffset": 208384,
      "byteLength": 13224,
      "target": 34962
    },
    {
      "buffer": 0,
      "byteOffset": 221608,
      "byteLength": 13224,
      "target": 34962
    },
    {
      "buffer": 0,
      "byteOffset": 234832,
      "byteLength": 8816,
      "target": 34962
    },
    {
      "buffer": 0,
      "byteOffset": 243648,
      "byteLength": 11232,
      "target": 34963
    },
    {
      "buffer": 0,
      "byteOffset": 254880,
      "byteLength": 8616,
      "target": 34962
    },
    {
      "buffer": 0,
      "byteOffset": 263496,
      "byteLength": 8616,
      "target": 34962
    },
    {
      "buffer": 0,
      "byteOffset": 272112,
      "byteLength": 5744,
      "target": 34962
    },
    {
      "buffer": 0,
      "byteOffset": 277856,
      "byteLength": 7104,
      "target": 34963
    }
  ],
  "accessors": [
    {
      "bufferView": 0,
      "componentType": 5126,
      "count": 2950,
      "type": "VEC3",
      "min": [
        -0.800000011920929,
        -0.1300000101327896,
        -0.3499999940395355
      ],
      "max": [
        0.800000011920929,
        0.6299999952316284,
        0.3499999940395355
      ]
    },
    {
      "bufferView": 1,
      "componentType": 5126,
      "count": 2950,
      "type": "VEC3"
    },
    {
      "bufferView": 2,
      "componentType": 5126,
      "count": 2950,
      "type": "VEC2"
    },
    {
      "bufferView": 3,
      "componentType": 5123,
      "count": 16128,
      "type": "SCALAR"
    },
    {
      "bufferView": 4,
      "componentType": 5126,
      "count": 1190,
      "type": "VEC3",
      "min": [
        -0.6000000238418579,
        0.375,
        -0.2750000059604645
      ],
      "max": [
        0.6000000238418579,
        0.800000011920929,
        0.2750000059604645
      ]
    },
    {
      "bufferView": 5,
      "componentType": 5126,
      "count": 1190,
      "type": "VEC3"
    },
    {
      "bufferView": 6,
      "componentType": 5126,
      "count": 1190,
      "type": "VEC2"
    },
    {
      "bufferView": 7,
      "componentType": 5123,
      "count": 6144,
      "type": "SCALAR"
    },
    {
      "bufferView": 8,
      "componentType": 5126,
      "count": 270,
      "type": "VEC3",
      "min": [
        -0.7749999761581421,
        0.07999999821186066,
        0.22999998927116394
      ],
      "max": [
        0.7749999761581421,
        0.2800000011920929,
        0.4099999964237213
      ]
    },
    {
      "bufferView": 9,
      "componentType": 5126,
      "count": 270,
      "type": "VEC3"
    },
    {
      "bufferView": 10,
      "componentType": 5126,
      "count": 270,
      "type": "VEC2"
    },
    {
      "bufferView": 11,
      "componentType": 5123,
      "count": 1152,
      "type": "SCALAR"
    },
    {
      "bufferView": 12,
      "componentType": 5126,
      "count": 494,
      "type": "VEC3",
      "min": [
        -0.699999988079071,
        0.41999998688697815,
        -0.22499999403953552
      ],
      "max": [
        0.699999988079071,
        0.5,
        0.22499999403953552
      ]
    },
    {
      "bufferView": 13,
      "componentType": 5126,
      "count": 494,
      "type": "VEC3"
    },
    {
      "bufferView": 14,
      "componentType": 5126,
      "count": 494,
      "type": "VEC2"
    },
    {
      "bufferView": 15,
      "componentType": 5123,
      "count": 2304,
      "type": "SCALAR"
    },
    {
      "bufferView": 16,
      "componentType": 5126,
      "count": 1102,
      "type": "VEC3",
      "min": [
        -0.8999999761581421,
        -0.3700000047683716,
        -0.42500001192092896
      ],
      "max": [
        0.8999999761581421,
        -0.12999999523162842,
        0.42500001192092896
      ]
    },
    {
      "bufferView": 17,
      "componentType": 5126,
      "count": 1102,
      "type": "VEC3"
    },
    {
      "bufferView": 18,
      "componentType": 5126,
      "count": 1102,
      "type": "VEC2"
    },
    {
      "bufferView": 19,
      "componentType": 5123,
      "count": 5616,
      "type": "SCALAR"
    },
    {
      "bufferView": 20,
      "componentType": 5126,
      "count": 718,
      "type": "VEC3",
      "min": [
        -0.9750000238418579,
        0.07500000298023224,
        -0.4000000059604645
      ],
      "max": [
        -0.5249999761581421,
        0.5249999761581421,
        0.4000000059604645
      ]
    },
    {
      "bufferView": 21,
      "componentType": 5126,
      "count": 718,
      "type": "VEC3"
    },
    {
      "bufferView": 22,
      "componentType": 5126,
      "count": 718,
      "type": "VEC2"
    },
    {
      "bufferView": 23,
      "componentType": 5123,
      "count": 3552,
      "type": "SCALAR"
    }
  ],
  "materials": [
    {
      "name": "UpperMaterial",
      "pbrMetallicRoughness": {
        "baseColorFactor": [
          1,
          1,
          1,
          1
        ],
        "metallicFactor": 0.05,
        "roughnessFactor": 0.75
      }
    },
    {
      "name": "CollarMaterial",
      "pbrMetallicRoughness": {
        "baseColorFactor": [
          0.95,
          0.95,
          0.95,
          1
        ],
        "metallicFactor": 0.03,
        "roughnessFactor": 0.8
      }
    },
    {
      "name": "AccentMaterial",
      "pbrMetallicRoughness": {
        "baseColorFactor": [
          0.8,
          0.83,
          0.9,
          1
        ],
        "metallicFactor": 0.2,
        "roughnessFactor": 0.4
      }
    },
    {
      "name": "LaceMaterial",
      "pbrMetallicRoughness": {
        "baseColorFactor": [
          0.9,
          0.9,
          0.9,
          1
        ],
        "metallicFactor": 0.05,
        "roughnessFactor": 0.55
      }
    },
    {
      "name": "SoleMaterial",
      "pbrMetallicRoughness": {
        "baseColorFactor": [
          0.92,
          0.92,
          0.92,
          1
        ],
        "metallicFactor": 0.01,
        "roughnessFactor": 0.85
      }
    },
    {
      "name": "HeelClipMaterial",
      "pbrMetallicRoughness": {
        "baseColorFactor": [
          0.82,
          0.85,
          0.88,
          1
        ],
        "metallicFactor": 0.25,
        "roughnessFactor": 0.45
      }
    }
  ],
  "meshes": [
    {
      "name": "Upper",
      "primitives": [
        {
          "attributes": {
            "POSITION": 0,
            "NORMAL": 1,
            "TEXCOORD_0": 2
          },
          "indices": 3,
          "material": 0
        }
      ]
    },
    {
      "name": "Collar",
      "primitives": [
        {
          "attributes": {
            "POSITION": 4,
            "NORMAL": 5,
            "TEXCOORD_0": 6
          },
          "indices": 7,
          "material": 1
        }
      ]
    },
    {
      "name": "Accent",
      "primitives": [
        {
          "attributes": {
            "POSITION": 8,
            "NORMAL": 9,
            "TEXCOORD_0": 10
          },
          "indices": 11,
          "material": 2
        }
      ]
    },
    {
      "name": "Laces",
      "primitives": [
        {
          "attributes": {
            "POSITION": 12,
            "NORMAL": 13,
            "TEXCOORD_0": 14
          },
          "indices": 15,
          "material": 3
        }
      ]
    },
    {
      "name": "Sole",
      "primitives": [
        {
          "attributes": {
            "POSITION": 16,
            "NORMAL": 17,
            "TEXCOORD_0": 18
          },
          "indices": 19,
          "material": 4
        }
      ]
    },
    {
      "name": "HeelClip",
      "primitives": [
        {
          "attributes": {
            "POSITION": 20,
            "NORMAL": 21,
            "TEXCOORD_0": 22
          },
          "indices": 23,
          "material": 5
        }
      ]
    }
  ],
  "nodes": [
    {
      "name": "Upper",
      "mesh": 0
    },
    {
      "name": "Collar",
      "mesh": 1
    },
    {
      "name": "Accent",
      "mesh": 2
    },
    {
      "name": "Laces",
      "mesh": 3
    },
    {
      "name": "Sole",
      "mesh": 4
    },
    {
      "name": "HeelClip",
      "mesh": 5
    },
    {
      "name": "Sneaker",
      "children": [
        0,
        1,
        2,
        3,
        4,
        5
      ],
      "rotation": [
        -0.1649937030653019,
        0.31443183553890114,
        -0.05559425802283478,
        0.9331768199132074
      ],
      "translation": [
        0,
        0,
        0
      ],
      "scale": [
        1,
        1,
        1
      ]
    }
  ],
  "scenes": [
    {
      "nodes": [
        6
      ]
    }
  ],
  "scene": 0
}
