<svg width="1200" height="900" viewBox="0 0 1200 900" fill="none" xmlns="http://www.w3.org/2000/svg">
  <defs>
    <linearGradient id="bg" x1="0" y1="0" x2="1" y2="1">
      <stop offset="0%" stop-color="#1b1b33" />
      <stop offset="50%" stop-color="#1a2452" />
      <stop offset="100%" stop-color="#122033" />
    </linearGradient>
    <radialGradient id="glow" cx="50%" cy="35%" r="60%">
      <stop offset="0%" stop-color="#69aaff" stop-opacity="0.65" />
      <stop offset="100%" stop-color="#1b1b33" stop-opacity="0" />
    </radialGradient>
    <linearGradient id="shoeBase" x1="200" y1="500" x2="970" y2="480" gradientUnits="userSpaceOnUse">
      <stop offset="0%" stop-color="#f4f4f8" />
      <stop offset="40%" stop-color="#ffffff" />
      <stop offset="100%" stop-color="#dfe6ff" />
    </linearGradient>
    <linearGradient id="sole" x1="220" y1="600" x2="960" y2="620" gradientUnits="userSpaceOnUse">
      <stop offset="0%" stop-color="#12121f" />
      <stop offset="100%" stop-color="#1f2436" />
    </linearGradient>
    <linearGradient id="accent" x1="520" y1="430" x2="930" y2="420" gradientUnits="userSpaceOnUse">
      <stop offset="0%" stop-color="#0ea5e9" />
      <stop offset="100%" stop-color="#6478ff" />
    </linearGradient>
    <filter id="shadow" x="0" y="0" width="1200" height="900" filterUnits="userSpaceOnUse" color-interpolation-filters="sRGB">
      <feGaussianBlur in="SourceAlpha" stdDeviation="40" result="blur" />
      <feOffset dy="30" />
      <feComponentTransfer>
        <feFuncA type="linear" slope="0.4" />
      </feComponentTransfer>
      <feBlend in="SourceGraphic" in2="blur" mode="normal" />
    </filter>
  </defs>
  <rect width="1200" height="900" fill="url(#bg)" />
  <rect width="1200" height="900" fill="url(#glow)" />
  <g filter="url(#shadow)">
    <path d="M280 500C240 460 250 400 320 380C390 360 480 370 560 360C650 350 760 290 860 320C960 350 1030 430 1020 510C1010 590 960 620 900 640C840 660 780 690 690 700C600 710 480 700 400 650C320 600 330 540 280 500Z" fill="url(#shoeBase)" />
    <path d="M310 606C310 606 400 660 560 664C720 668 910 612 960 584C1010 556 1015 520 1015 520C1020 565 1004 605 952 630C900 655 816 688 672 694C528 700 414 678 344 640C300 616 310 606 310 606Z" fill="url(#sole)" />
    <path d="M525 428C600 420 690 392 770 404C850 416 910 468 910 520C910 572 866 592 820 612C774 632 712 654 626 656C540 658 466 634 426 612C386 590 374 546 386 510C398 474 450 436 525 428Z" fill="#ffffff0d" />
    <path d="M458 470C480 452 520 444 560 440C640 432 748 434 812 472C876 510 830 546 782 562C734 578 640 598 560 594C480 590 416 568 402 540C388 512 436 488 458 470Z" fill="#10162f0f" />
    <path d="M520 422C610 410 720 380 830 408C870 418 904 440 908 476C912 512 874 546 840 560C806 574 770 562 742 546C708 526 650 518 584 528C518 538 470 556 440 546C410 536 402 510 410 486C418 462 430 434 520 422Z" stroke="url(#accent)" stroke-width="10" stroke-linecap="round" />
    <path d="M380 470C388 450 410 424 450 410C490 396 560 392 640 398" stroke="#fdfdfd" stroke-width="14" stroke-linecap="round" stroke-opacity="0.9" />
    <path d="M404 492C406 474 424 446 470 432" stroke="#f0f3ff" stroke-width="9" stroke-linecap="round" stroke-opacity="0.9" />
    <path d="M432 516C438 492 470 458 520 446" stroke="#cfd7ff" stroke-width="8" stroke-linecap="round" stroke-opacity="0.9" />
    <g stroke="#fdfdfd" stroke-width="5" stroke-linecap="round" stroke-opacity="0.8">
      <path d="M520 476L604 470" />
      <path d="M532 498L618 496" />
      <path d="M544 518L632 520" />
      <path d="M558 538L646 544" />
    </g>
  </g>
  <ellipse cx="600" cy="720" rx="340" ry="110" fill="#050914" fill-opacity="0.65" />
  <text x="120" y="150" font-family="'Segoe UI', 'Helvetica Neue', Arial, sans-serif" font-size="48" font-weight="600" letter-spacing="0.24em" fill="#7dd3fc99">ORBIT SERIES</text>
  <text x="120" y="220" font-family="'Segoe UI', 'Helvetica Neue', Arial, sans-serif" font-size="96" font-weight="700" fill="#f8fafc">LUNAR ARC</text>
  <text x="120" y="280" font-family="'Segoe UI', 'Helvetica Neue', Arial, sans-serif" font-size="28" fill="#cbd5f5cc">Engineered for deep space momentum, balanced for everyday motion.</text>
</svg>
